<svg xmlns="http://www.w3.org/2000/svg" width="800" height="380" style="background-color:#ffffff; font-family:Arial, sans-serif;">
  <title>Packaging Material Barrier Properties (M3 Profiling)</title>
  <text x="400" y="30" text-anchor="middle" font-size="20" font-weight="bold" fill="#111827">Packaging Material Barrier Properties (Log Scale Comparison)</text>
  <text x="400" y="55" text-anchor="middle" font-size="14" fill="#4B5563">OTR (cc/m²-day-atm) vs WVTR (g/m²-day)</text>

  <!-- Axes -->
  <line x1="120" y1="300" x2="720" y2="300" stroke="#9CA3AF" stroke-width="2"/>
  <line x1="120" y1="80" x2="120" y2="300" stroke="#9CA3AF" stroke-width="2"/>

  <!-- Material Bars for OTR -->
  <!-- LDPE -->
  <text x="140" y="320" font-size="11" fill="#1F2937">LDPE</text>
  <rect x="140" y="100" width="25" height="200" fill="#2563EB"/>
  <rect x="170" y="288" width="25" height="12" fill="#DC2626"/>

  <!-- HDPE -->
  <text x="230" y="320" font-size="11" fill="#1F2937">HDPE</text>
  <rect x="230" y="150" width="25" height="150" fill="#2563EB"/>
  <rect x="260" y="296" width="25" height="4" fill="#DC2626"/>

  <!-- BOPP -->
  <text x="320" y="320" font-size="11" fill="#1F2937">BOPP</text>
  <rect x="320" y="165" width="25" height="135" fill="#2563EB"/>
  <rect x="350" y="295" width="25" height="5" fill="#DC2626"/>

  <!-- BOPET -->
  <text x="410" y="320" font-size="11" fill="#1F2937">BOPET</text>
  <rect x="410" y="230" width="25" height="70" fill="#2563EB"/>
  <rect x="440" y="100" width="25" height="200" fill="#DC2626"/>

  <!-- BOPA 6 -->
  <text x="500" y="320" font-size="11" fill="#1F2937">BOPA 6</text>
  <rect x="500" y="260" width="25" height="40" fill="#2563EB"/>
  <rect x="530" y="80" width="25" height="220" fill="#DC2626"/>

  <!-- EVOH (F101B) -->
  <text x="590" y="320" font-size="11" fill="#1F2937">EVOH (Dry)</text>
  <rect x="590" y="295" width="25" height="5" fill="#2563EB"/>
  <rect x="620" y="70" width="25" height="230" fill="#DC2626"/>

  <!-- Legend -->
  <rect x="550" y="15" width="15" height="15" fill="#2563EB"/>
  <text x="572" y="27" font-size="12" fill="#1F2937">OTR (cc/m²-day-atm)</text>
  <rect x="680" y="15" width="15" height="15" fill="#DC2626"/>
  <text x="702" y="27" font-size="12" fill="#1F2937">WVTR (g/m²-day)</text>
</svg>